<?xml version="1.0" encoding="UTF-8" standalone="no"?>
<svg
   width="44"
   height="44"
   viewBox="0 0 44 44"
   fill="none"
   version="1.1"
   id="svg69"
   xml:space="preserve"
   xmlns="http://www.w3.org/2000/svg"
   xmlns:svg="http://www.w3.org/2000/svg"><defs
     id="defs73" /><circle
     cx="21.536661"
     cy="21.639624"
     r="18.629093"
     fill="#ffffff"
     stroke="#3e89b5"
     stroke-width="2.72621"
     id="circle67" /><path
     style="fill:#000000;stroke-width:0.0452613"
     d="m 14.365353,31.419238 c -0.267481,-0.08241 -0.58958,-0.367076 -0.725964,-0.641629 l -0.107253,-0.215918 v -8.079129 -8.079133 l 0.121545,-0.230379 c 0.135823,-0.257427 0.363313,-0.477306 0.615617,-0.595041 0.148712,-0.06939 0.374523,-0.08007 1.961641,-0.09279 l 1.793597,-0.01429 0.02601,-0.160242 c 0.0356,-0.219372 0.231261,-0.461487 0.455057,-0.563121 0.175037,-0.07948 0.34363,-0.0846 2.788822,-0.0846 2.445194,0 2.613786,0.005 2.788822,0.0846 0.223803,0.101633 0.419459,0.343749 0.455059,0.563121 l 0.02601,0.160242 1.793596,0.01429 c 1.587118,0.01265 1.812943,0.02334 1.961644,0.09279 0.252305,0.117737 0.479786,0.337614 0.615618,0.595041 l 0.121545,0.230379 v 8.079133 8.079135 l -0.107253,0.215917 c -0.141564,0.284965 -0.458715,0.559271 -0.744903,0.644259 -0.332952,0.09886 -13.517851,0.09636 -13.839231,-0.0027 z M 28.0318,30.610353 c 0.06859,-0.03547 0.149067,-0.117906 0.178801,-0.183185 0.07839,-0.17201 0.07839,-15.717216 0,-15.889229 -0.109896,-0.241219 -0.161504,-0.24767 -1.980436,-0.24767 h -1.676917 v 0.406716 0.406713 l 1.437045,0.01195 1.437047,0.01194 v 7.354954 7.354955 h -6.1329 -6.132899 v -7.355021 -7.354954 l 1.437044,-0.01195 1.437045,-0.01195 v -0.406713 -0.406716 h -1.672538 c -1.200328,0 -1.706041,0.01525 -1.791213,0.05408 -0.263027,0.11983 -0.247813,-0.383885 -0.246069,8.147279 0.0017,8.430421 -0.01068,7.986754 0.229688,8.120057 0.167508,0.09285 13.296694,0.09156 13.476307,-0.0013 z m -1.419165,-8.127791 v -6.540249 h -1.016524 -1.016522 l -0.02909,0.142205 c -0.04557,0.222804 -0.202885,0.440531 -0.397221,0.549757 l -0.178134,0.100114 h -2.68072 -2.680718 L 18.435572,16.634275 C 18.241239,16.52504 18.083923,16.307331 18.038353,16.084518 l -0.02909,-0.142205 h -1.016521 -1.016523 l -0.01166,6.494988 c -0.0065,3.572245 -0.002,6.520533 0.01,6.551752 0.01716,0.04515 1.107098,0.05441 5.329829,0.04527 l 5.308231,-0.01138 z m -9.39171,4.073512 v -0.40735 h 2.240431 2.240433 v 0.40735 0.407352 h -2.240433 -2.240431 z m 6.527173,0.01138 0.01307,-0.396036 0.803387,-0.01237 0.803388,-0.01237 v 0.408395 0.408397 h -0.816466 -0.816464 z m -6.527173,-2.455421 v -0.407352 h 2.240431 2.240433 v 0.407352 0.407349 h -2.240433 -2.240431 z m 6.51762,0 v -0.407352 h 0.814702 0.814703 v 0.407352 0.407349 h -0.814703 -0.814702 z m -6.51762,-2.444108 v -0.407353 h 2.240431 2.240433 v 0.407353 0.407349 h -2.240433 -2.240431 z m 6.51762,0 v -0.407353 h 0.814702 0.814703 v 0.407353 0.407349 h -0.814703 -0.814702 z m -6.51762,-2.444108 v -0.407353 h 2.240431 2.240433 v 0.407353 0.407349 h -2.240433 -2.240431 z m 6.51762,0 v -0.407353 h 0.814702 0.814703 v 0.407353 0.407349 h -0.814703 -0.814702 z m 0,-4.526125 v -1.22212 h -2.444108 -2.444108 v 1.222052 1.222053 h 2.444108 2.444108 z"
     id="path290" /></svg>
